<?xml version="1.0" encoding="UTF-8"?> <!-- Generator: Adobe Illustrator 21.0.2, SVG Export Plug-In . SVG Version: 6.00 Build 0) --> <svg xmlns="http://www.w3.org/2000/svg" xmlns:xlink="http://www.w3.org/1999/xlink" id="Layer_1" x="0px" y="0px" viewBox="0 0 512 512" style="enable-background:new 0 0 512 512;" xml:space="preserve"> <style type="text/css"> .st0{fill:#DBCC5D;} .st1{fill:#804EA8;} </style> <path class="st0" d="M253.6,96c-73,1.3-134.8,61.8-137.4,134.7c-1.5,40.1,14,76.6,39.9,103c24.5,24.9,40,57.2,40,92.2V436h120v-10.2 c0-34.3,14.4-66.6,38.7-90.7c25.5-25.3,41.3-60.3,41.3-99C396,158,331.9,94.7,253.6,96z"></path> <path class="st1" d="M316,436v26c0,22.1-17.9,40-40,40h-40c-22.1,0-40-17.9-40-40v-26H316z"></path> <path class="st1" d="M296,236c11.1,0,20,8.9,20,20s-8.9,20-20,20s-20-8.9-20-20S284.9,236,296,236z"></path> <path class="st1" d="M216,236c11.1,0,20,8.9,20,20s-8.9,20-20,20s-20-8.9-20-20S204.9,236,216,236z"></path> <path d="M166,206c-5.5,0-10,4.5-10,10s4.5,10,10,10s10-4.5,10-10S171.5,206,166,206z"></path> <path d="M188,183.7c14.7-23.6,40.1-37.7,68-37.7c5.5,0,10-4.5,10-10s-4.5-10-10-10c-34.8,0-66.6,17.6-84.9,47.1 c-2.9,4.7-1.5,10.9,3.2,13.8C179,189.8,185.1,188.3,188,183.7z"></path> <path d="M186,462c0,27.6,22.4,50,50,50h40c27.6,0,50-22.4,50-50c0-8.5,0-27.9,0-36.2c0-31,12.7-60.7,35.7-83.6 c28.6-28.4,44.3-66,44.3-106.1c0-83.5-68.5-151.4-152.6-150C175,87.4,109,152.1,106.1,230.4c-1.5,41.5,13.7,80.6,42.8,110.3 c24,24.4,37.1,54.7,37.1,85.1V462z M306,462c0,16.5-13.5,30-30,30h-40c-16.5,0-30-13.5-30-30v-16h100V462z M246,426V286h20v140H246z M163.1,326.7c-25.2-25.7-38.4-59.7-37-95.6c2.5-67.8,59.7-123.9,127.6-125.1c72.6-1.2,132.3,57.3,132.3,130 c0,34.7-13.6,67.4-38.4,91.9c-26.8,26.7-41.6,61.4-41.6,97.8v0.2h-20V286h10c16.5,0,30-13.5,30-30s-13.5-30-30-30s-30,13.5-30,30 c0,3.5,0.6,6.9,1.7,10h-23.4c1.1-3.1,1.7-6.5,1.7-10c0-16.5-13.5-30-30-30s-30,13.5-30,30s13.5,30,30,30h10v140h-20v-0.1 C206,390.1,190.8,354.9,163.1,326.7z M286,256c0-5.5,4.5-10,10-10s10,4.5,10,10s-4.5,10-10,10S286,261.5,286,256z M226,256 c0,5.5-4.5,10-10,10s-10-4.5-10-10s4.5-10,10-10S226,250.5,226,256z"></path> <path d="M266,56V10c0-5.5-4.5-10-10-10s-10,4.5-10,10v46c0,5.5,4.5,10,10,10S266,61.5,266,56z"></path> <path d="M417.2,64.8c-3.9-3.9-10.2-3.9-14.1,0l-28.3,28.3c-3.9,3.9-3.9,10.2,0,14.1s10.2,3.9,14.1,0l28.3-28.3 C421.1,75,421.1,68.7,417.2,64.8z"></path> <path d="M137.2,107.2c3.9-3.9,3.9-10.2,0-14.1l-28.3-28.3c-3.9-3.9-10.2-3.9-14.1,0s-3.9,10.2,0,14.1l28.3,28.3 C127,111.1,133.3,111.1,137.2,107.2z"></path> <path d="M436,206c-5.5,0-10,4.5-10,10s4.5,10,10,10h40c5.5,0,10-4.5,10-10s-4.5-10-10-10H436z"></path> <path d="M36,206c-5.5,0-10,4.5-10,10s4.5,10,10,10h40c5.5,0,10-4.5,10-10s-4.5-10-10-10H36z"></path> </svg> 